<?xml version="1.0" encoding="UTF-8"?>
<svg id="Layer_2" data-name="Layer 2" xmlns="http://www.w3.org/2000/svg" viewBox="0 0 811.51 128.35">
  <defs>
    <style>
      .cls-1 {
        fill: #fff;
        stroke: #07402b;
        stroke-miterlimit: 10;
        stroke-width: 4.21px;
      }

      .cls-2 {
        letter-spacing: -.03em;
      }

      .cls-3 {
        fill: #f9f9f9;
        font-family: NasalizationRg-Regular, Nasalization;
        font-size: 95.15px;
      }
    </style>
  </defs>
  <g id="Layer_1-2" data-name="Layer 1">
    <g>
      <g>
        <path class="cls-1" d="M47.31,98.45c-5.59,0-10.72-.74-15.33-2.23l-11.86,30.02h18.19l10.96-27.79h-1.97Z"/>
        <path class="cls-1" d="M124.7,126.24h-18.35l-10.5-27.79-7.09-18.79-11.12-29.43c-.84-2.25-2.37-3.21-4.62-3.21s-3.78.97-4.76,3.21l-11.61,29.43h-18.14s14.77-37.42,14.77-37.42c3.49-8.81,9.94-12.17,19.88-12.17s16.24,3.35,19.61,12.17l31.92,84.01Z"/>
      </g>
      <path class="cls-1" d="M21.63,50.28c0,16.04,4.34,24.82,14.04,27.97,2.88.95,6.22,1.4,10.05,1.4h38.2c.87,0,1.64.54,1.95,1.35l5.52,14.63c.51,1.36-.49,2.82-1.95,2.82h-45.54c-5.59,0-10.72-.74-15.33-2.23C11.94,90.84,2.11,75.7,2.11,50.28,2.11,17.8,18.16,2.11,43.89,2.11h47.55c1.15,0,2.08.93,2.08,2.08v14.44c0,1.15-.93,2.08-2.08,2.08h-45.72c-16.79,0-24.09,8.76-24.09,29.56Z"/>
    </g>
    <text class="cls-3" transform="translate(142.02 98.81)"><tspan x="0" y="0">Core</tspan><tspan class="cls-2" x="234.84" y="0">A</tspan><tspan x="306.68" y="0">thletics</tspan></text>
  </g>
</svg>