<?xml version="1.0" encoding="UTF-8"?>
<svg id="Layer_2" data-name="Layer 2" xmlns="http://www.w3.org/2000/svg" viewBox="0 0 1108.97 1114.12">
  <defs>
    <style>
      .cls-1 {
        fill: #fff;
        stroke: #07402b;
        stroke-miterlimit: 10;
        stroke-width: 36.55px;
      }
    </style>
  </defs>
  <g id="Layer_1-2" data-name="Layer 1">
    <g>
      <path class="cls-1" d="M410.64,854.6c-48.49,0-93.09-6.46-133.05-19.37l-102.96,260.62h157.91l95.16-241.25h-17.06Z"/>
      <path class="cls-1" d="M1082.48,1095.85h-159.25l-91.14-241.25-61.53-163.15-96.5-255.5c-7.31-19.5-20.59-27.9-40.09-27.9s-32.78,8.41-41.3,27.9l-100.76,255.5h-65.43l-92.01-.11,128.19-324.72c30.34-76.52,86.26-105.64,172.53-105.64s140.97,29.12,170.21,105.64l277.07,729.22Z"/>
    </g>
    <path class="cls-1" d="M187.76,436.44c0,139.27,37.65,215.42,121.84,242.83,24.98,8.29,53.98,12.18,87.24,12.18h331.57c7.53,0,14.27,4.66,16.93,11.71l47.88,126.96c4.46,11.83-4.28,24.48-16.93,24.48h-395.29c-48.49,0-93.09-6.46-133.05-19.37C103.69,788.56,18.28,657.09,18.28,436.44,18.28,154.5,157.66,18.28,381,18.28h412.74c9.99,0,18.09,8.1,18.09,18.09v125.37c0,9.99-8.1,18.09-18.09,18.09h-396.9c-145.72,0-209.08,76.03-209.08,256.6Z"/>
  </g>
</svg>