<?xml version="1.0" encoding="UTF-8"?>
<svg id="Layer_2" data-name="Layer 2" xmlns="http://www.w3.org/2000/svg" viewBox="0 0 1421.27 1421.27">
  <defs>
    <style>
      .cls-1 {
        stroke-width: 39.41px;
      }

      .cls-1, .cls-2 {
        fill: #07402b;
        stroke: #fff;
      }

      .cls-1, .cls-2, .cls-3 {
        stroke-miterlimit: 10;
      }

      .cls-2 {
        stroke-width: 26.27px;
      }

      .cls-3 {
        stroke: #07402b;
        stroke-width: 15.31px;
      }

      .cls-3, .cls-4 {
        fill: #fff;
      }
    </style>
  </defs>
  <g id="Layer_1-2" data-name="Layer 1">
    <circle class="cls-1" cx="710.63" cy="710.63" r="690.93"/>
    <circle class="cls-2" cx="710.63" cy="710.63" r="384.34"/>
    <g>
      <path class="cls-3" d="M652.11,835.26c-20.31,0-38.99-2.7-55.73-8.11l-43.12,109.16h66.14l39.86-101.05h-7.14Z"/>
      <path class="cls-3" d="M933.51,936.31h-66.7l-38.17-101.05-25.77-68.34-40.42-107.02c-3.06-8.17-8.63-11.69-16.79-11.69s-13.73,3.52-17.3,11.69l-42.21,107.02h-27.41l-38.54-.05,53.69-136.01c12.71-32.05,36.13-44.25,72.26-44.25s59.05,12.2,71.29,44.25l116.05,305.44Z"/>
    </g>
    <path class="cls-3" d="M558.75,660.11c0,58.33,15.77,90.23,51.03,101.71,10.46,3.47,22.61,5.1,36.54,5.1h138.88c3.15,0,5.98,1.95,7.09,4.9l20.06,53.18c1.87,4.96-1.79,10.25-7.09,10.25h-165.57c-20.31,0-38.99-2.7-55.73-8.11-60.43-19.55-96.2-74.61-96.2-167.04,0-118.09,58.38-175.15,151.93-175.15h172.88c4.19,0,7.58,3.39,7.58,7.58v52.51c0,4.19-3.39,7.58-7.58,7.58h-166.24c-61.04,0-87.58,31.85-87.58,107.48Z"/>
    <g>
      <path class="cls-4" d="M227.21,414.23l14.72,7.98-20.5,37.82c-7.2,13.28-3.4,22.81,13.05,31.72,16.45,8.92,26.37,6.83,33.57-6.46l20.5-37.81,14.87,8.06-21.28,39.26c-11.03,20.35-30.33,26.32-56.03,12.4-25.69-13.93-31.22-33.36-20.19-53.71l21.28-39.26Z"/>
      <path class="cls-4" d="M279.41,347.32c14.9-17.5,35.12-19.47,57.37-.54,22.25,18.94,23.53,39.22,8.64,56.72l-11.81,13.88c-15,17.63-35.12,19.47-57.37.54-22.26-18.94-23.64-39.1-8.64-56.72l11.81-13.88ZM281.41,370.8c-9.79,11.5-8.05,21.61,6.21,33.74s24.38,12.13,34.17.63l9.69-11.38c9.68-11.37,8.17-21.5-6.08-33.63-14.25-12.13-24.62-12.12-34.3-.74l-9.68,11.37Z"/>
      <path class="cls-4" d="M373.86,260.74l10.52,13.02-23.75,19.2c-6,4.85-6.41,9.83-1.66,15.7l36.95,45.71-13.54,10.94-38.6-47.76c-10.94-13.53-10.92-23.69,2.36-34.42l27.71-22.4Z"/>
      <path class="cls-4" d="M446.38,217.61c18.03-9.81,30.38-5.32,38.38,9.39,7.61,13.99,4.86,25.77-13.89,35.97l-36.2,19.7,2.98,5.48c3.29,6.06,9.04,8.72,17.41,4.17l46.58-25.34,8.08,14.85-46.59,25.34c-19.04,10.36-32.34,3.77-40.19-10.66l-14.12-25.96c-7.84-14.42-6.15-29.17,12.88-39.53l24.66-13.42ZM428.16,270.69l35.77-19.46c8.22-4.47,9.37-9.58,6.3-15.21-3.14-5.77-8.49-7.72-16-3.63l-24.51,13.34c-8.37,4.55-9.17,10.97-5.96,16.88l4.39,8.07Z"/>
      <path class="cls-4" d="M604.87,164.66c21.25-4.24,32.01,6,35.22,22.1l7.97,39.93c2.44,12.23.19,17.71-14.15,20.57l-39.77,7.94c-20.13,4.01-30.46-4.13-33.67-20.24-3.08-15.45,2.85-26.01,23.78-30.19l40.41-8.07-1.28-6.44c-1.32-6.6-6.05-11.02-15.39-9.15l-50.88,10.16-3.28-16.43,51.04-10.18ZM630.54,226.17l-3.18-15.94-40.09,8c-9.01,1.8-11.5,6.14-10.25,12.42,1.25,6.28,5.44,9.63,13.97,7.93l35.75-7.13c3.38-.68,4.42-2.22,3.8-5.28Z"/>
      <path class="cls-4" d="M672.51,156.86l-.54-20.52,17.56-.46.54,20.51,23.96-.63.44,16.74-23.96.63,1.07,41.03c.26,9.68,3.78,12.88,11.99,12.66l11.98-.31.42,15.92-15.59.41c-17.89.47-25.79-6.55-26.38-29.2l-1.05-40.04-11.81.31-.44-16.74,11.82-.31Z"/>
      <path class="cls-4" d="M764.47,121.24l-5.67,37.17,30.19,4.6c28.89,4.41,41.05,20.55,37.46,44.08l-7.35,48.21-17.37-2.65,7.35-48.21c2-13.15-4.76-22.15-22.61-24.87l-30.19-4.6-10.54,69.15-17.21-2.62,18.74-122.88,17.21,2.62Z"/>
      <path class="cls-4" d="M892.55,149.68l-37.81,118.42-16.59-5.29,37.81-118.42,16.58,5.29Z"/>
      <path class="cls-4" d="M963.94,220.72c18.43,9.03,21.92,21.7,14.55,36.75-7.01,14.31-18.21,18.88-37.38,9.49l-37.01-18.13-2.75,5.61c-3.03,6.19-1.88,12.43,6.68,16.61l47.63,23.33-7.43,15.19-47.64-23.33c-19.47-9.53-21.79-24.2-14.57-38.95l13-26.55c7.22-14.75,20.24-21.91,39.7-12.37l25.22,12.35ZM910.1,236.59l36.57,17.91c8.41,4.12,13.24,2.09,16.05-3.66,2.89-5.9,1.38-11.4-6.29-15.15l-25.07-12.28c-8.56-4.19-14.26-1.13-17.22,4.91l-4.04,8.26Z"/>
      <path class="cls-4" d="M1018.49,253.38l11.97-16.67,14.27,10.25-11.97,16.67,19.47,13.98-9.77,13.6-19.47-13.98-23.95,33.33c-5.65,7.87-4.77,12.55,1.9,17.34l9.73,6.99-9.29,12.93-12.67-9.1c-14.53-10.44-16.59-20.81-3.37-39.21l23.37-32.54-9.6-6.9,9.77-13.6,9.6,6.9Z"/>
      <path class="cls-4" d="M1082.67,304.3l-57.6,64.78-13-11.56,57.59-64.79,13.01,11.56ZM1104.5,280l-13.42,15.09-13.13-11.67,13.42-15.09,13.13,11.67Z"/>
      <path class="cls-4" d="M1157.91,386.4l-12.77,10.83-27.81-32.82c-9.76-11.53-20.02-11.44-34.3.66-14.28,12.1-15.92,22.1-6.16,33.62l27.81,32.82-12.9,10.94-28.87-34.08c-14.97-17.66-13.53-37.81,8.76-56.71,22.3-18.89,42.41-17,57.38.66l28.87,34.08Z"/>
      <path class="cls-4" d="M1211.12,476.31l-14.62,8.17-23.39-41.85c-3.93-7.02-8.39-8.29-14.13-5.09-5.31,2.97-6.89,6.86-2.16,15.32l9.93,17.77c11.7,20.92,5.06,31.59-6.7,38.16-13.47,7.53-26.86,5.79-36.79-11.98l-24.59-44,14.76-8.25,24.59,44c3.93,7.02,7.97,8.53,13.84,5.24,6.03-3.36,6.7-7.88,2.45-15.47l-10.01-17.92c-11.69-20.92-4.11-31.93,7.5-38.42,13.62-7.61,26-5.31,35.85,12.32l23.47,42Z"/>
    </g>
    <g>
      <path class="cls-4" d="M296.85,993.1l-13.25,7.88-20.23-34.02c-7.1-11.95-16.42-13.43-31.22-4.63-14.8,8.8-17.82,17.62-10.71,29.57l20.22,34.02-13.37,7.95-20.99-35.31c-10.89-18.31-6.52-36.38,16.6-50.12,23.11-13.74,41.07-8.96,51.96,9.35l21,35.32Z"/>
      <path class="cls-4" d="M337.88,1042.33c13.95,15.89,13.06,34.56-7.15,52.3-20.21,17.73-38.83,16.2-52.79.31l-11.06-12.6c-14.05-16.01-13.05-34.57,7.15-52.3,20.21-17.73,38.74-16.32,52.78-.31l11.06,12.6ZM316.23,1041.03c-9.17-10.44-18.6-10.2-31.54,1.16-12.94,11.36-14.29,20.58-5.12,31.03l9.07,10.33c9.07,10.33,18.49,10.3,31.43-1.06,12.94-11.36,14.3-20.8,5.23-31.13l-9.07-10.33Z"/>
      <path class="cls-4" d="M413.49,1110.6c15.79,12.19,15.18,25.84,5.95,37.8l-22.89,29.66c-7.02,9.09-12.17,10.83-22.82,2.62l-29.54-22.8c-14.95-11.54-15.54-23.63-6.31-35.6,8.86-11.48,19.77-13.75,35.32-1.75l30.02,23.17,3.69-4.79c3.78-4.9,3.99-10.85-2.95-16.21l-37.8-29.17,9.42-12.2,37.91,29.26ZM386.33,1165.59l9.14-11.84-29.78-22.98c-6.7-5.17-11.21-4.27-14.81.4-3.6,4.66-3.39,9.59,2.94,14.49l26.55,20.49c2.51,1.94,4.21,1.72,5.96-.55Z"/>
      <path class="cls-4" d="M516.74,1170.8l-7.03,13.7-35.21-18.07c-12.36-6.35-21.05-2.66-28.91,12.66-7.87,15.32-5.73,24.39,6.63,30.74l35.21,18.07-7.1,13.84-36.55-18.77c-18.95-9.72-24.84-27.35-12.56-51.27,12.28-23.92,30.04-29.41,48.99-19.68l36.54,18.76Z"/>
      <path class="cls-4" d="M557.02,1148.6l-9.72,33.2,26.96,7.9c25.8,7.56,34.91,23.76,28.75,44.78l-12.61,43.05-15.51-4.54,12.61-43.05c3.44-11.74-1.63-20.78-17.57-25.45l-26.96-7.9-18.09,61.75-15.36-4.5,32.14-109.74,15.37,4.5Z"/>
      <path class="cls-4" d="M649.22,1205.3l-11.47,78.91-15.84-2.3,11.47-78.92,15.84,2.31ZM653.69,1175.58l-2.67,18.38-15.99-2.32,2.67-18.38,15.99,2.32Z"/>
      <path class="cls-4" d="M714.15,1209.4c27.04.1,40.13,12.99,40.04,35.05l-.18,44.86-16.16-.07.18-44.85c.05-12.54-7.17-19.51-23.94-19.58l-26.13-.1c-1.36,0-1.97.75-1.98,2.25l-.25,62.08-16.01-.07.27-67.36c.04-9.36,3.22-12.37,11.23-12.34l32.92.13Z"/>
      <path class="cls-4" d="M825.89,1197.21c18.67-3.7,30.92,5.27,35.38,27.8l8.92,45.05c4.4,22.23-1.57,32.49-23.5,36.84l-46.53,9.22-2.99-15.12,44.75-8.86c11.71-2.32,14.65-7.67,12.42-18.94l-.71-3.56-34.53,6.84c-20.9,4.14-36.37-5.58-41.38-30.92-4.99-25.19,5.64-39.92,26.53-44.06l21.64-4.28ZM817.77,1261.95l33.04-6.54-5.43-27.41c-2.52-12.74-8.5-17.26-21.09-14.76l-15.56,3.08c-13.48,2.67-18.21,10.69-15.05,26.69,3.17,16.01,10.6,21.62,24.09,18.95Z"/>
      <path class="cls-4" d="M967.75,1103.85l36.61,71.36c10.48,20.43,6.44,35.06-10.49,43.75l-19.62,10.07c-18.95,9.72-36.71,4.23-48.98-19.69-12.27-23.93-6.38-41.55,12.57-51.27l31.31-16.07-15.79-30.78,14.38-7.38ZM989.64,1181.92l-13.45-26.21-29.97,15.37c-12.23,6.27-14.43,15.55-6.57,30.87,7.86,15.32,16.61,18.81,28.84,12.54l14.11-7.24c11.42-5.86,13.24-13.24,7.04-25.34Z"/>
      <path class="cls-4" d="M1041.05,1091.16c14.8-11.72,26.7-9.59,36.27,2.49,9.09,11.49,8.45,22.6-6.95,34.78l-29.72,23.54,3.57,4.5c3.93,4.97,9.57,6.48,16.43,1.05l38.25-30.29,9.66,12.2-38.25,30.29c-15.63,12.38-28.72,8.49-38.1-3.35l-16.88-21.32c-9.37-11.84-10.15-25.48,5.47-37.85l20.25-16.03ZM1032.87,1142.14l29.36-23.26c6.75-5.34,6.99-10.15,3.33-14.77-3.75-4.74-8.91-5.66-15.07-.78l-20.13,15.94c-6.87,5.44-6.59,11.38-2.75,16.24l5.25,6.63Z"/>
      <path class="cls-4" d="M1107.62,1023.78c13.74-16.07,32.25-17.73,52.69-.26,20.44,17.48,21.67,36.02,7.92,52.09l-22.97,26.87,24.34,20.81-10.41,12.17-59.01-50.46c-17.45-14.92-19.37-29.88-6.9-44.46l14.34-16.76ZM1133.43,1092.36l21.89-25.6c9.03-10.56,7.56-19.76-5.53-30.96-13.09-11.19-22.52-11.31-31.56-.75l-10.21,11.94c-8.44,9.87-7.32,17.39,3.13,26.33l22.27,19.04Z"/>
      <path class="cls-4" d="M1139.88,980.16l-16.05-9.94,8.51-13.74,16.05,9.94,11.61-18.75,13.1,8.11-11.61,18.75,32.1,19.88c7.57,4.69,11.81,3.58,15.79-2.83l5.8-9.37,12.46,7.71-7.55,12.2c-8.66,13.99-18.05,16.53-35.77,5.56l-31.33-19.4-5.72,9.25-13.1-8.11,5.73-9.24Z"/>
    </g>
  </g>
</svg>